<?xml version="1.0" standalone="no"?><!DOCTYPE svg PUBLIC "-//W3C//DTD SVG 1.1//EN" "http://www.w3.org/Graphics/SVG/1.1/DTD/svg11.dtd"><svg t="1591333540161" class="icon" viewBox="0 0 1024 1024" version="1.1" xmlns="http://www.w3.org/2000/svg" p-id="1139" xmlns:xlink="http://www.w3.org/1999/xlink" width="200" height="200"><defs><style type="text/css"></style></defs><path d="M944.71062125 581.5119875v74.61742969c29.665545-56.85708656 46.47377156-120.32650969 46.47377063-187.38698438C991.18439188 227.70706813 776.4409325 32.19335844 511.68512656 32.19335844 246.93681875 32.19335844 32.19335844 227.70706813 32.19335844 468.74243281c0 3.02128219 0.20991562 6.04256531 0.20991562 9.07134375l172.2056025-194.56909031h100.00969688l-148.14030094 203.82036281h48.13060406V435.3059075l102.91852407-146.01865594v370.05836906H204.60887656V581.5119875H48.37183906c44.61452062 152.0687175 176.988675 271.45060781 344.84602969 310.36742437-10.79564906 24.74002969-42.11802656 84.43847156-94.19953875 95.01670876-64.52649656 13.22467031 175.11443063 3.20870719 346.08303094-98.79518625 131.33957156-34.56856875 239.43850781-118.81961625 298.15484625-228.75531375h-101.25419532V581.5119875H669.58649375V477.99370438l172.41551813-194.74901813h97.5207l-145.65880125 203.82036281h48.13810125v-55.72504406l102.91102781-145.45638187v295.62836437h-0.20241844z m-586.56361969 21.15647344a78.83822906 78.83822906 0 0 1-7.46699062-33.99879844V366.16876906c0-12.09262688 2.48899687-23.42056125 7.46699062-33.99879843a87.4147725 87.4147725 0 0 1 20.33930344-27.58888219c8.50157438-7.73688188 18.6674775-13.97436844 30.28779469-18.50254406 11.62031719-4.53567188 24.06530156-6.80725688 37.3499475-6.80725688h84.65588437c13.2696525 0 25.72213406 2.271585 37.34245125 6.80725688 11.41040156 4.52817562 21.36638906 10.57074 29.88295781 18.127695l-91.91296031 122.22324468v-21.72624468a14.69407875 14.69407875 0 0 0-4.98549094-11.33543157c-3.32116125-3.02128219-7.46699063-4.52817562-12.44498437-4.52817468-4.98549094 0-9.13132031 1.5068925-12.45248156 4.52817468a14.69407875 14.69407875 0 0 0-4.97799375 11.33543157v68.005095L364.789325 614.00389344a79.13810813 79.13810813 0 0 1-6.64232344-11.3354325z m267.86705156-33.99879844c0 12.09262688-2.48899687 23.42056125-7.47448781 33.99879844a87.4147725 87.4147725 0 0 1-20.33180625 27.58888218c-8.50157438 7.73688188-18.6674775 13.97436844-30.28779469 18.51004032-11.62031719 4.52817562-24.06530156 6.79975969-37.3499475 6.79975969H445.9141325c-13.2696525 0-25.72213406-2.271585-37.34245125-6.79975969-11.62031719-4.53567188-21.78622031-10.77315844-30.29529187-18.5175375a93.63726469 93.63726469 0 0 1-10.37581875-11.33543156l102.91102781-136.57246219v47.79323906c0 4.53567188 1.66432969 8.31414937 4.98549094 11.3354325 3.313665 3.02128219 7.46699063 4.52817562 12.44498531 4.52817469 4.97799375 0 9.13132031-1.5068925 12.44498437-4.52817469a14.69407875 14.69407875 0 0 0 4.98549094-11.3354325V436.05560469L601.73883594 308.36706219c6.84474188 6.98718375 12.44498437 14.91898781 16.59831094 23.80290843 4.97799375 10.57074 7.46699063 21.90617156 7.46699062 33.99879844v202.50089344h0.20991562z" p-id="1140"></path></svg>