<?xml version="1.0" standalone="no"?><!DOCTYPE svg PUBLIC "-//W3C//DTD SVG 1.1//EN" "http://www.w3.org/Graphics/SVG/1.1/DTD/svg11.dtd"><svg t="1591329052933" class="icon" viewBox="0 0 1033 1024" version="1.1" xmlns="http://www.w3.org/2000/svg" p-id="3752" xmlns:xlink="http://www.w3.org/1999/xlink" width="201.7578125" height="200"><defs><style type="text/css"></style></defs><path d="M518.757912 970.539538A456.820214 456.820214 0 1 1 975.578126 513.719324a457.51447 457.51447 0 0 1-456.820214 456.820214z m0-872.679345a416.553387 416.553387 0 1 0 416.553386 416.553387 416.553387 416.553387 0 0 0-416.553386-416.553387zM66.797487 257.538991A138.851129 138.851129 0 1 1 257.023533 65.924433l-34.712782 22.910437a96.501535 96.501535 0 1 0-132.602828 133.991339zM969.329825 258.233247l-22.216181-35.407038A96.501535 96.501535 0 0 0 896.432982 45.096764a95.807279 95.807279 0 0 0-79.839399 42.349594L781.186545 64.535922A138.851129 138.851129 0 0 1 895.738727 3.441425a138.851129 138.851129 0 0 1 69.425564 254.791822z" p-id="3753"></path><path d="M183.432435 1023.997223a51.374918 51.374918 0 0 1-36.101293-87.476211l89.558978-89.558978 29.158737 29.158737-88.864723 89.558978a9.719579 9.719579 0 0 0 0 6.942556 9.025323 9.025323 0 0 0 0 6.942557 10.413835 10.413835 0 0 0 13.190858 0l99.278557-99.278557 29.158737 29.158737-98.584302 99.278557a50.680662 50.680662 0 0 1-36.795549 15.273624zM851.306365 1023.997223a50.680662 50.680662 0 0 1-36.101293-15.273624L715.232259 905.973763l29.158737-29.158737 99.278557 99.278557a10.413835 10.413835 0 0 0 13.190857 0 9.719579 9.719579 0 0 0 0-13.190857L767.301432 876.120771l29.158737-29.158737 89.558979 89.558978a51.374918 51.374918 0 0 1-36.101294 87.476211z" p-id="3754"></path><path d="M466.688738 176.311081m43.738106 0l0 0q43.738106 0 43.738105 43.738105l0 300.612695q0 43.738106-43.738105 43.738105l0 0q-43.738106 0-43.738106-43.738105l0-300.612695q0-43.738106 43.738106-43.738105Z" p-id="3755"></path><path d="M779.798034 477.618031m0 43.738105l0 0q0 43.738106-43.738106 43.738106l-225.633084 0q-43.738106 0-43.738106-43.738106l0 0q0-43.738106 43.738106-43.738105l225.633084 0q43.738106 0 43.738106 43.738105Z" p-id="3756"></path></svg>